<?xml version="1.0" encoding="utf-8"?>
<!-- Generator: Adobe Illustrator 16.0.0, SVG Export Plug-In . SVG Version: 6.00 Build 0)  -->
<!DOCTYPE svg PUBLIC "-//W3C//DTD SVG 1.1//EN" "http://www.w3.org/Graphics/SVG/1.1/DTD/svg11.dtd">
<svg version="1.1" xmlns="http://www.w3.org/2000/svg" xmlns:xlink="http://www.w3.org/1999/xlink" x="0px" y="0px" width="128px"
	 height="128px" viewBox="0 0 128 128" enable-background="new 0 0 128 128" xml:space="preserve">
<g id="Layer_1_copy_2">
	<path fill-rule="evenodd" clip-rule="evenodd" d="M15.851,36.973c0.432,0.265,0.915,0.16,1.372,0.136
		c5.317-0.28,10.177,1.03,14.576,3.769c4.312,2.685,7.434,6.27,8.772,11.013c2.301,8.157-2.373,15.556-10.713,18.168
		c-8.007,2.509-15.379,0.937-22.076-3.733c-1.115-0.777-1.95-1.825-3.031-2.631c0.137-2.309,0.669-4.554,1.319-6.773
		C8.163,49.775,11.606,43.202,15.851,36.973z"/>
	<path fill-rule="evenodd" clip-rule="evenodd" d="M42.58,100.548c1.876,1.251,3.652,2.603,4.91,4.443
		c3.609,5.282,3.766,10.662,0.488,16.129c-0.155,0.259-0.391,0.491-0.215,0.822c-6.334-1.65-12.172-4.279-17.57-7.771
		c-3.419-2.213-6.538-4.752-9.391-7.576c-0.168-0.166-0.313-0.353-0.469-0.529c-0.048-0.39,0.112-0.717,0.344-1.026
		c2.734-3.657,6.386-5.998,11.144-6.734c0.87-0.135,1.748-0.073,2.605,0.148C37.314,98.575,40.014,99.337,42.58,100.548z"/>
	<g>
		<path fill-rule="evenodd" clip-rule="evenodd" d="M63.789,128c-22.642-0.002-43.817-11.49-55.263-29.983
			C3.647,90.136,0.824,81.48,0.135,72.29c-0.008-0.076-0.028-0.149-0.044-0.224L0,71.609v-6.084l0.02-0.136
			c0.08-0.561,0.112-1.15,0.146-1.773c0.024-0.452,0.05-0.904,0.091-1.355c0.229-2.487,0.954-4.785,1.739-7.117
			c2.088-6.2,5.296-12.469,9.807-19.164c2.932-4.351,6.296-8.575,10.284-12.915c2.372-2.581,4.968-5.091,7.935-7.673
			c4.827-4.2,9.509-7.497,14.313-10.081C48.5,3.072,52.43,1.526,56.35,0.585c1.246-0.299,2.452-0.375,3.619-0.45
			c0.313-0.02,0.625-0.04,0.938-0.064l0.2-0.008L61.21,0h5.2l0.193,0.04c0.593,0.122,1.191,0.212,1.789,0.304
			c0.806,0.123,1.638,0.25,2.482,0.447c5.445,1.275,10.874,3.691,16.598,7.387c8.031,5.186,15.305,11.761,22.236,20.103
			c6.382,7.679,11.104,15.262,14.44,23.184c2.161,5.135,3.384,9.784,3.736,14.214c0.227,2.839,0.12,5.836-0.334,9.431
			c-1.298,10.276-5.149,19.608-11.447,27.735c-10.479,13.521-24.58,21.719-41.913,24.364C70.748,127.733,67.249,128,63.792,128
			C63.791,128,63.79,128,63.789,128z M48.964,118.292c4.985,1.304,9.985,1.964,14.87,1.964c3.333,0,6.682-0.308,9.957-0.916
			c18.626-3.456,32.322-13.412,40.707-29.59c0.868-1.677,2.116-5.129,2.586-6.428c0.164-0.453,0.229-0.635,0.282-0.752l0.052-0.126
			c0.029-0.069,0.062-0.139,0.083-0.21c1.004-3.264,1.663-6.604,1.959-9.927c0.284-3.201,0.27-5.646-0.045-7.929
			c-0.565-4.109-1.83-8.208-3.867-12.531c-5.942-12.613-14.853-23.714-26.482-32.993c-5.28-4.213-10.476-7.199-15.885-9.127
			c-3.24-1.155-6.288-1.717-9.315-1.717c-1.473,0-2.955,0.139-4.403,0.414c-3.871,0.734-7.725,2.17-11.781,4.39
			c-6.165,3.375-12.017,7.942-17.889,13.963c-4,4.102-11.205,13.671-11.273,13.764c-4.454,6.694-7.366,12.673-9.109,18.74
			c-0.509,1.773-1.046,3.872-1.163,5.985c0.049,0.459,0.07,1.014,0.095,1.687c0.086,2.296,0.247,6.568,0.58,8.612
			c0.326,1.995,0.818,4.609,1.739,7.145l0.032,0.088l0.088,0.357c0.024,0.104,0.046,0.209,0.08,0.31
			c1.486,4.4,3.556,8.555,6.154,12.35l6.412,7.889c5.405,5.402,11.832,9.595,19.098,12.461c1.84,0.726,3.82,1.457,5.827,1.898
			l0.46,0.102L48.964,118.292z"/>
		<path fill-rule="evenodd" clip-rule="evenodd" d="M127.889,65.889c-0.387-4.867-1.798-9.517-3.703-14.041
			c-3.577-8.497-8.608-16.213-14.586-23.406c-6.456-7.769-13.783-14.715-22.479-20.329c-5.068-3.272-10.458-5.938-16.487-7.35
			C69.198,0.427,67.725,0.296,66.282,0c-1.532,0-3.064,0-4.597,0c-0.227,0.139-0.48,0.049-0.72,0.068
			c-1.468,0.115-2.944,0.134-4.388,0.48c-4.221,1.013-8.149,2.668-11.91,4.69c-5.249,2.822-9.979,6.3-14.395,10.143
			c-2.816,2.451-5.512,5.026-8.023,7.758c-3.799,4.134-7.311,8.469-10.42,13.083c-4.092,6.072-7.566,12.42-9.877,19.283
			c-0.758,2.25-1.478,4.514-1.697,6.886C0.154,63.499,0.157,64.612,0,65.715c0,1.983,0,3.967,0,5.949
			c0.045,0.245,0.114,0.488,0.132,0.735c0.686,9.14,3.45,17.695,8.36,25.628c13.241,21.394,39.053,33.248,65.716,29.179
			c17.545-2.678,31.537-10.944,41.944-24.374c6.394-8.25,10.124-17.511,11.401-27.628C127.945,72.106,128.137,68.998,127.889,65.889
			z M13.942,98.008c-2.852-4.152-5.05-8.592-6.638-13.294c-0.081-0.24-0.128-0.49-0.191-0.735c-0.914-2.516-1.46-5.112-1.887-7.729
			c-0.528-3.239-0.636-11.011-0.72-11.031c0.122-2.263,0.649-4.46,1.274-6.637c2.056-7.151,5.54-13.701,9.707-19.96
			c0.025-0.037,7.538-10.029,11.804-14.403c5.582-5.724,11.732-10.824,18.919-14.758c3.985-2.181,8.185-3.875,12.737-4.738
			c5.223-0.99,10.268-0.33,15.192,1.425c6.308,2.249,11.86,5.666,16.956,9.732c12.069,9.629,21.471,21.146,27.873,34.735
			c2.034,4.318,3.513,8.801,4.16,13.502c0.396,2.876,0.312,5.752,0.057,8.626c-0.321,3.613-1.029,7.166-2.102,10.652
			c-0.062,0.198-0.151,0.389-0.228,0.582c-0.063,0.108-1.802,5.173-3.005,7.496c-8.898,17.171-23.303,27.834-43.39,31.562
			c-9.009,1.672-17.996,1.156-26.843-1.211c-0.078-0.038-0.137-0.078-0.187-0.119c-2.18-0.479-4.258-1.241-6.313-2.051
			c-7.807-3.078-14.597-7.521-20.38-13.3c-0.117-0.117-0.215-0.25-0.322-0.375"/>
	</g>
	<path fill-rule="evenodd" clip-rule="evenodd" d="M82.155,57.786c-0.003,5.053-4.696,9.863-9.96,10.451
		c-5.471,0.611-8.997-3.501-7.966-8.281c0.938-4.354,4.746-7.941,9.449-8.678c4.261-0.668,7.541,1.405,8.38,5.123
		C82.167,56.881,82.135,57.363,82.155,57.786z"/>
	<path fill-rule="evenodd" clip-rule="evenodd" d="M117.312,76.846c-0.907-5.469-3.161-10.252-7.581-13.763
		c-4.313-3.428-9.147-4.313-14.333-2.275c-4.158,1.632-7.071,4.712-9.03,8.637c-3.496,6.998-3.709,14.203-0.828,21.453
		c1.218,3.068,3.037,5.778,5.674,7.859c0.095,0.094,0.19,0.186,0.284,0.279c1.146,0.855,2.342,1.622,3.667,2.178
		c3.497,1.466,7.022,1.536,10.551,0.162c3.349-1.303,5.896-3.61,7.88-6.556c1.822-2.708,2.983-5.694,3.593-8.896l0,0
		c0.011-0.284-0.022-0.576,0.136-0.836C117.783,82.341,117.767,79.586,117.312,76.846z"/>
</g>
<g id="Layer_1_copy" display="none">
	<g display="inline">
		<g>
			<path fill-rule="evenodd" clip-rule="evenodd" fill="#121212" d="M81.943-410c9.724,2.141,19.662,3.083,29.345,5.513
				c40.655,10.202,76.997,29.467,111.173,53.119c58.634,40.575,108.035,90.776,151.569,146.924
				c40.306,51.982,74.232,107.75,98.356,169.159c12.844,32.696,22.359,66.301,24.972,101.48c1.668,22.472,0.379,44.936-2.259,67.327
				c-8.614,73.121-33.773,140.05-76.88,199.67c-70.181,97.065-164.53,156.807-282.834,176.159
				c-179.785,29.409-353.837-56.268-443.123-210.878c-33.109-57.333-51.745-119.17-56.369-185.225
				c-0.124-1.783-0.588-3.543-0.895-5.313c0-14.331,0-28.663,0-42.994c1.062-7.973,1.04-16.021,1.729-24.024
				c1.476-17.142,6.331-33.505,11.441-49.767c15.584-49.599,39.01-95.479,66.603-139.364c20.966-33.346,44.64-64.673,70.259-94.55
				c16.932-19.745,35.108-38.354,54.102-56.067c29.78-27.772,61.673-52.909,97.066-73.307
				c25.357-14.614,51.846-26.577,80.307-33.898c9.732-2.504,19.687-2.644,29.586-3.474c1.62-0.136,3.324,0.512,4.856-0.488
				C61.279-410,71.612-410,81.943-410z"/>
			<path fill-rule="evenodd" clip-rule="evenodd" fill="#F2F2F2" d="M-258.116-133.153c22.484-36.385,48.379-70.204,77.141-101.814
				c37.641-41.368,79.112-78.229,127.572-106.658c26.869-15.762,55.186-28.006,85.883-34.241
				c35.217-7.153,69.239-2.387,102.441,10.3c42.527,16.252,79.97,40.952,114.336,70.34
				c81.38,69.594,144.775,152.823,187.945,251.038c13.717,31.207,23.688,63.605,28.055,97.581
				c2.672,20.787,2.097,41.576,0.377,62.347c-2.162,26.116-6.938,51.792-14.172,76.992c-0.41,1.43-1.017,2.803-1.532,4.201
				c-2.696,4.985-6.513,8.931-11.152,12.141c-1.785,1.236-3.45,2.874-5.825,1.438c-2.153-1.302-1.729-3.462-1.464-5.406
				c1.439-10.578,2.148-21.182,1.981-31.872c-0.647-41.236-12.429-78.655-39.763-109.962c-23.102-26.458-52.307-41.085-88.222-38.67
				C283.22,26.1,263.57,34.935,246.542,49.344c-28.487,24.106-44.141,55.506-50.861,91.613
				c-7.99,42.925-2.104,83.922,18.896,122.421c6.904,12.656,15.915,23.748,26.371,33.73c7.696,7.347,7.056,9.777-3.17,12.59
				c-28.954,7.967-58.362,13.743-88.144,17.584c-33.753,4.351-67.676,5.96-101.666,4.996c-38.004-1.079-75.722-5.173-112.945-13.145
				c-4.456-0.954-8.694-2.938-13.41-2.353c-12.668-6.288-25.612-11.745-39.77-13.803c-4.922-0.715-9.95-0.429-14.796-1.705
				c-18.358-6.399-36.683-12.913-54.448-20.858c-31.04-13.882-60.81-30.071-88.877-49.325
				c-11.117-7.625-21.785-15.847-32.405-24.133c-3.501-2.731-6.212-6.146-8.356-10.022c-6.162-18.18-9.845-36.944-12.723-55.854
				c-3.563-23.413-5.064-46.987-4.138-70.68c0.136-3.484,0.616-6.956,0.937-10.434c3.361-1.741,4.967,1.082,6.655,2.861
				c10.167,10.718,21.5,19.975,34.423,27.111c42.835,23.653,87.615,29.853,133.63,11.283c37.158-14.996,60.88-42.453,67.129-82.948
				c3.224-20.887,0.152-41.358-8.911-60.431c-24.273-51.076-66.182-77.916-120.967-86.485c-10.379-1.623-20.841-1.673-31.329-1.074
				C-254.662-129.583-258.063-128.895-258.116-133.153z"/>
			<path fill-rule="evenodd" clip-rule="evenodd" fill="#F2F2F2" d="M-78.015,314.033c19.58,3.964,39.165,7.897,59.005,10.368
				c17.008,2.119,34.057,3.684,51.186,4.641c15.486,0.866,30.964,1.091,46.443,0.809c54.527-0.994,108.123-8.61,160.691-23.232
				c5.998-1.669,6.083-1.921,1.535-6.179c-30.83-28.857-45.938-65.076-49.998-106.492c-3.357-34.268,1.726-67.214,16.923-98.149
				c16.416-33.417,40.472-59.212,77.316-69.901c35.16-10.201,66.987-1.927,95.013,20.881c29.513,24.017,45.241,56.198,52.584,92.845
				c4.254,21.225,4.497,42.649,1.365,64.091c-0.237,1.625-0.311,3.272-0.542,5.804c6.481-3.678,10.956-8.814,16.422-12.583
				c-4.682,18.12-11.303,35.583-19.42,52.372C370.511,373.4,273.384,450.469,137.935,477.409
				c-60.747,12.081-121.352,8.356-181-8.751c-3.784-2.004-2.235-4.585-0.726-7.102c6.395-10.673,11.085-22.056,13.149-34.32
				c7.339-43.63-7.06-78.785-41.755-105.913C-74.842,319.41-78.634,318.372-78.015,314.033z"/>
			<path fill-rule="evenodd" clip-rule="evenodd" fill="#B8B8B8" d="M-258.116-133.153c2.911,1.911,6.171,1.152,9.252,0.979
				c35.852-2.02,68.626,7.444,98.286,27.238c29.075,19.403,50.129,45.316,59.152,79.596
				c15.517,58.951-15.999,112.425-72.241,131.308c-53.99,18.128-103.699,6.765-148.856-26.982
				c-7.517-5.617-13.147-13.196-20.438-19.019c0.925-16.688,4.514-32.911,8.897-48.953
				C-309.955-40.63-286.74-88.135-258.116-133.153z"/>
			<path fill-rule="evenodd" clip-rule="evenodd" fill="#9C9C9C" d="M-78.015,314.033c12.649,9.041,24.628,18.807,33.108,32.109
				c24.34,38.179,25.393,77.062,3.29,116.567c-1.049,1.875-2.636,3.555-1.449,5.948c-42.712-11.929-82.077-30.928-118.473-56.172
				c-23.057-15.992-44.085-34.343-63.327-54.75c-1.133-1.202-2.112-2.548-3.164-3.825c-0.326-2.816,0.757-5.179,2.318-7.417
				c18.436-26.436,43.063-43.354,75.141-48.673c5.869-0.974,11.79-0.527,17.571,1.071
				C-113.524,299.774-95.321,305.277-78.015,314.033z"/>
			<path fill-rule="evenodd" clip-rule="evenodd" fill="#F2F2F2" d="M-132.999,298.893c-40.015,0.987-70.715,18.546-92.516,51.968
				c-0.716,1.097-1.671,2.037-2.515,3.051c-16.322-16.979-30.283-35.795-42.96-55.581c-19.229-30.011-34.051-62.094-44.758-96.082
				c-0.546-1.734-0.866-3.54-1.291-5.313c24.656,20.418,50.621,38.944,78.472,54.803c31.918,18.174,65.261,33.126,100.039,44.912
				C-136.646,297.286-134.84,298.14-132.999,298.893z"/>
			<path fill-rule="evenodd" clip-rule="evenodd" fill="#B8B8B8" d="M188.974,7.63c-0.016,36.519-31.665,71.283-67.159,75.532
				C84.923,87.579,61.147,57.857,68.1,23.31c6.331-31.468,32.008-57.39,63.718-62.722c28.728-4.83,50.852,10.158,56.506,37.026
				C189.056,1.092,188.838,4.574,188.974,7.63z"/>
		</g>
	</g>
</g>
<g id="Layer_1" display="none">
	<g display="inline">
		<g>
			<path fill-rule="evenodd" clip-rule="evenodd" fill="#FFFFFF" d="M81.943-410c137.457,0,274.913,0.016,412.369-0.085
				c3.602-0.002,4.686,0.575,4.685,4.504c-0.115,305.57-0.115,611.14,0.004,916.709c0.002,4.041-0.784,4.869-4.853,4.867
				c-284.909-0.123-569.819-0.121-854.729-0.006c-3.927,0.001-4.508-1.08-4.505-4.684C-364.984,376.85-365,242.392-365,107.935
				c3.749-0.221,3.186,2.752,3.333,4.838c1.392,19.795,4.017,39.427,8.133,58.829c6.662,31.401,16.648,61.697,30.031,90.926
				c17.477,38.169,40.309,72.814,67.774,104.431c22.053,25.385,47.147,47.436,74.569,66.903
				c19.074,13.542,39.075,25.499,60.101,35.662c40.952,19.794,83.982,32.779,129.085,39.069c25.664,3.578,51.436,4.776,77.227,3.663
				c34.712-1.497,68.839-7.24,102.238-17.038c24.692-7.243,48.556-16.621,71.501-28.208c35.434-17.895,67.794-40.255,97.132-67.087
				c35.882-32.818,65.107-70.697,88.253-113.396c25.307-46.688,40.908-96.479,47.809-149.035
				c2.952-22.483,4.403-45.132,3.026-67.771c-1.521-25.032-6.815-49.473-14.375-73.379c-15.883-50.228-39.56-96.722-67.718-141.077
				c-21.387-33.684-45.384-65.423-71.605-95.438c-35.629-40.785-74.952-77.574-119.562-108.53
				c-27.925-19.378-57.44-35.674-89.574-46.953c-14.972-5.255-30.396-8.767-46.124-10.934C84.227-406.87,81.673-406.714,81.943-410z
				"/>
			<path fill-rule="evenodd" clip-rule="evenodd" fill="#121212" d="M81.943-410c9.724,2.141,19.662,3.083,29.345,5.513
				c40.655,10.202,76.997,29.467,111.173,53.119c58.634,40.575,108.035,90.776,151.569,146.924
				c40.306,51.982,74.232,107.75,98.356,169.159c12.844,32.696,22.359,66.301,24.972,101.48c1.668,22.472,0.379,44.936-2.259,67.327
				c-8.614,73.121-33.773,140.05-76.88,199.67c-70.181,97.065-164.53,156.807-282.834,176.159
				c-179.785,29.409-353.837-56.268-443.123-210.878c-33.109-57.333-51.745-119.17-56.369-185.225
				c-0.124-1.783-0.588-3.543-0.895-5.313c0-14.331,0-28.663,0-42.994c1.062-7.973,1.04-16.021,1.729-24.024
				c1.476-17.142,6.331-33.505,11.441-49.767c15.584-49.599,39.01-95.479,66.603-139.364c20.966-33.346,44.64-64.673,70.259-94.55
				c16.932-19.745,35.108-38.354,54.102-56.067c29.78-27.772,61.673-52.909,97.066-73.307
				c25.357-14.614,51.846-26.577,80.307-33.898c9.732-2.504,19.687-2.644,29.586-3.474c1.62-0.136,3.324,0.512,4.856-0.488
				C61.279-410,71.612-410,81.943-410z"/>
			<path fill-rule="evenodd" clip-rule="evenodd" fill="#FFFFFF" d="M50.948-410c-10.09,2.053-20.36,3.053-30.388,5.515
				c-39.859,9.787-75.674,28.241-109.385,51.097c-55.804,37.835-103.076,84.777-144.944,137.301
				c-43.107,54.078-79.186,112.406-104.674,176.928c-12.898,32.651-22.469,66.19-25.71,101.316
				c-0.087,0.945-0.557,1.856-0.848,2.783c0-156.893,0.015-313.785-0.093-470.677c-0.002-3.559,0.675-4.367,4.324-4.364
				C-223.531-409.981-86.291-410,50.948-410z"/>
			<path fill-rule="evenodd" clip-rule="evenodd" fill="#F2F2F2" d="M-258.116-133.153c22.484-36.385,48.379-70.204,77.141-101.814
				c37.641-41.368,79.112-78.229,127.572-106.658c26.869-15.762,55.186-28.006,85.883-34.241
				c35.217-7.153,69.239-2.387,102.441,10.3c42.527,16.252,79.97,40.952,114.336,70.34
				c81.38,69.594,144.775,152.823,187.945,251.038c13.717,31.207,23.688,63.605,28.055,97.581
				c2.672,20.787,2.097,41.576,0.377,62.347c-2.162,26.116-6.938,51.792-14.172,76.992c-0.41,1.43-1.017,2.803-1.532,4.201
				c-2.696,4.985-6.513,8.931-11.152,12.141c-1.785,1.236-3.45,2.874-5.825,1.438c-2.153-1.302-1.729-3.462-1.464-5.406
				c1.439-10.578,2.148-21.182,1.981-31.872c-0.647-41.236-12.429-78.655-39.763-109.962c-23.102-26.458-52.307-41.085-88.222-38.67
				C283.22,26.1,263.57,34.935,246.542,49.344c-28.487,24.106-44.141,55.506-50.861,91.613
				c-7.99,42.925-2.104,83.922,18.896,122.421c6.904,12.656,15.915,23.748,26.371,33.73c7.696,7.347,7.056,9.777-3.17,12.59
				c-28.954,7.967-58.362,13.743-88.144,17.584c-33.753,4.351-67.676,5.96-101.666,4.996c-38.004-1.079-75.722-5.173-112.945-13.145
				c-4.456-0.954-8.694-2.938-13.41-2.353c-12.668-6.288-25.612-11.745-39.77-13.803c-4.922-0.715-9.95-0.429-14.796-1.705
				c-18.358-6.399-36.683-12.913-54.448-20.858c-31.04-13.882-60.81-30.071-88.877-49.325
				c-11.117-7.625-21.785-15.847-32.405-24.133c-3.501-2.731-6.212-6.146-8.356-10.022c-6.162-18.18-9.845-36.944-12.723-55.854
				c-3.563-23.413-5.064-46.987-4.138-70.68c0.136-3.484,0.616-6.956,0.937-10.434c3.361-1.741,4.967,1.082,6.655,2.861
				c10.167,10.718,21.5,19.975,34.423,27.111c42.835,23.653,87.615,29.853,133.63,11.283c37.158-14.996,60.88-42.453,67.129-82.948
				c3.224-20.887,0.152-41.358-8.911-60.431c-24.273-51.076-66.182-77.916-120.967-86.485c-10.379-1.623-20.841-1.673-31.329-1.074
				C-254.662-129.583-258.063-128.895-258.116-133.153z"/>
			<path fill-rule="evenodd" clip-rule="evenodd" fill="#AFAFAF" d="M-78.015,314.033c19.58,3.964,39.165,7.897,59.005,10.368
				c17.008,2.119,34.057,3.684,51.186,4.641c15.486,0.866,30.964,1.091,46.443,0.809c54.527-0.994,108.123-8.61,160.691-23.232
				c5.998-1.669,6.083-1.921,1.535-6.179c-30.83-28.857-45.938-65.076-49.998-106.492c-3.357-34.268,1.726-67.214,16.923-98.149
				c16.416-33.417,40.472-59.212,77.316-69.901c35.16-10.201,66.987-1.927,95.013,20.881c29.513,24.017,45.241,56.198,52.584,92.845
				c4.254,21.225,4.497,42.649,1.365,64.091c-0.237,1.625-0.311,3.272-0.542,5.804c6.481-3.678,10.956-8.814,16.422-12.583
				c-4.682,18.12-11.303,35.583-19.42,52.372C370.511,373.4,273.384,450.469,137.935,477.409
				c-60.747,12.081-121.352,8.356-181-8.751c-3.784-2.004-2.235-4.585-0.726-7.102c6.395-10.673,11.085-22.056,13.149-34.32
				c7.339-43.63-7.06-78.785-41.755-105.913C-74.842,319.41-78.634,318.372-78.015,314.033z"/>
			<path fill-rule="evenodd" clip-rule="evenodd" fill="#B8B8B8" d="M-258.116-133.153c2.911,1.911,6.171,1.152,9.252,0.979
				c35.852-2.02,68.626,7.444,98.286,27.238c29.075,19.403,50.129,45.316,59.152,79.596
				c15.517,58.951-15.999,112.425-72.241,131.308c-53.99,18.128-103.699,6.765-148.856-26.982
				c-7.517-5.617-13.147-13.196-20.438-19.019c0.925-16.688,4.514-32.911,8.897-48.953
				C-309.955-40.63-286.74-88.135-258.116-133.153z"/>
			<path fill-rule="evenodd" clip-rule="evenodd" fill="#9C9C9C" d="M-78.015,314.033c12.649,9.041,24.628,18.807,33.108,32.109
				c24.34,38.179,25.393,77.062,3.29,116.567c-1.049,1.875-2.636,3.555-1.449,5.948c-42.712-11.929-82.077-30.928-118.473-56.172
				c-23.057-15.992-44.085-34.343-63.327-54.75c-1.133-1.202-2.112-2.548-3.164-3.825c-0.326-2.816,0.757-5.179,2.318-7.417
				c18.436-26.436,43.063-43.354,75.141-48.673c5.869-0.974,11.79-0.527,17.571,1.071
				C-113.524,299.774-95.321,305.277-78.015,314.033z"/>
			<path fill-rule="evenodd" clip-rule="evenodd" fill="#AFAFAF" d="M-132.999,298.893c-40.015,0.987-70.715,18.546-92.516,51.968
				c-0.716,1.097-1.671,2.037-2.515,3.051c-16.322-16.979-30.283-35.795-42.96-55.581c-19.229-30.011-34.051-62.094-44.758-96.082
				c-0.546-1.734-0.866-3.54-1.291-5.313c24.656,20.418,50.621,38.944,78.472,54.803c31.918,18.174,65.261,33.126,100.039,44.912
				C-136.646,297.286-134.84,298.14-132.999,298.893z"/>
			<path fill-rule="evenodd" clip-rule="evenodd" fill="#B8B8B8" d="M188.974,7.63c-0.016,36.519-31.665,71.283-67.159,75.532
				C84.923,87.579,61.147,57.857,68.1,23.31c6.331-31.468,32.008-57.39,63.718-62.722c28.728-4.83,50.852,10.158,56.506,37.026
				C189.056,1.092,188.838,4.574,188.974,7.63z"/>
		</g>
	</g>
</g>
</svg>
