<?xml version="1.0" encoding="utf-8"?>
<!-- Generator: Adobe Illustrator 16.0.0, SVG Export Plug-In . SVG Version: 6.00 Build 0)  -->
<!DOCTYPE svg PUBLIC "-//W3C//DTD SVG 1.1//EN" "http://www.w3.org/Graphics/SVG/1.1/DTD/svg11.dtd">
<svg version="1.1" xmlns="http://www.w3.org/2000/svg" xmlns:xlink="http://www.w3.org/1999/xlink" x="0px" y="0px" width="128px"
	 height="128px" viewBox="0 0 128 128" enable-background="new 0 0 128 128" xml:space="preserve">
<g id="Layer_1">
	<g>
		<path fill-rule="evenodd" clip-rule="evenodd" d="M63.593,117.263c-0.796,0-1.56-0.317-2.122-0.88l-49.834-49.91
			c-1.17-1.172-1.169-3.07,0.002-4.241l50.616-50.615c0.563-0.563,1.325-0.879,2.121-0.879l0,0c0.796,0,1.559,0.316,2.121,0.879
			l49.865,49.867c1.172,1.171,1.172,3.07,0,4.242l-50.646,50.658C65.152,116.946,64.39,117.263,63.593,117.263L63.593,117.263z"/>
		<path display="none" fill-rule="evenodd" clip-rule="evenodd" d="M63.594,114.263C47.047,97.69,30.123,80.741,13.759,64.353
			c16.774-16.774,33.877-33.877,50.616-50.615c16.25,16.251,33.271,33.272,49.865,49.867C97.671,80.178,80.651,97.2,63.594,114.263z
			"/>
	</g>
</g>
<g id="Layer_2" display="none">
	<g display="inline">
		<path fill-rule="evenodd" clip-rule="evenodd" d="M63.482,115.928c-14.324,0-28.648,0.018-42.972-0.01
			c-6.504-0.012-8.421-1.865-8.426-8.207c-0.022-29.148-0.021-58.297,0-87.446c0.004-6.145,1.949-8.168,7.96-8.175
			c29.315-0.031,58.629-0.031,87.945,0.001c5.995,0.007,7.922,2.03,7.927,8.207c0.021,29.148,0.023,58.297-0.002,87.444
			c-0.006,6.338-1.924,8.166-8.459,8.178C92.798,115.943,78.141,115.928,63.482,115.928z"/>
	</g>
</g>
<g id="Paths">
</g>
</svg>
