<?xml version="1.0" encoding="utf-8"?>
<!-- Generator: Adobe Illustrator 16.0.0, SVG Export Plug-In . SVG Version: 6.00 Build 0)  -->
<!DOCTYPE svg PUBLIC "-//W3C//DTD SVG 1.1//EN" "http://www.w3.org/Graphics/SVG/1.1/DTD/svg11.dtd">
<svg version="1.1" xmlns="http://www.w3.org/2000/svg" xmlns:xlink="http://www.w3.org/1999/xlink" x="0px" y="0px" width="128px"
	 height="128px" viewBox="0 0 128 128" enable-background="new 0 0 128 128" xml:space="preserve">
<g id="Diamond" display="none">
	<path fill-rule="evenodd" clip-rule="evenodd" d="M63.472,112.856C47.351,96.711,30.864,80.2,14.923,64.234
		C31.265,47.892,47.925,31.23,64.23,14.923c15.831,15.833,32.411,32.415,48.58,48.581C96.668,79.65,80.086,96.233,63.472,112.856z"
		/>
	<path display="inline" fill-rule="evenodd" clip-rule="evenodd" d="M63.471,115.779c-0.776,0-1.52-0.309-2.067-0.856L12.854,66.3
		c-1.14-1.143-1.139-2.993,0.001-4.133l49.31-49.31C62.714,12.309,63.457,12,64.23,12l0,0c0.776,0,1.519,0.309,2.068,0.856
		l48.578,48.582c1.14,1.141,1.14,2.991,0,4.133l-49.34,49.352C64.99,115.472,64.245,115.779,63.471,115.779L63.471,115.779z"/>
</g>
<g id="Square" display="none">
	<path display="inline" fill-rule="evenodd" clip-rule="evenodd" d="M63.35,115.774c-14.306,0-28.611,0.017-42.918-0.01
		c-6.495-0.012-8.41-1.863-8.414-8.201c-0.023-29.123-0.023-58.248,0-87.372c0.003-6.139,1.946-8.161,7.949-8.167
		c29.277-0.031,58.556-0.031,87.833,0.001c5.987,0.007,7.911,2.029,7.916,8.201c0.021,29.124,0.023,58.249-0.002,87.369
		c-0.005,6.333-1.921,8.16-8.447,8.171C92.628,115.79,77.99,115.774,63.35,115.774z"/>
</g>
<g id="Star" display="none">
	<path display="inline" fill-rule="evenodd" clip-rule="evenodd" d="M64.129,98.137c-10.851,5.818-21.43,11.492-32.899,17.643
		c2.143-12.989,4.137-25.092,6.153-37.313c-8.4-8.93-16.769-17.829-25.382-26.985c11.681-1.786,23.448-3.584,35.611-5.444
		C52.931,35.073,58.28,24.045,64.123,12c5.731,11.811,11.006,22.675,16.501,34c11.771,1.809,23.708,3.646,35.108,5.399
		c-8.283,8.866-16.609,17.777-24.92,26.67c2.065,12.521,4.075,24.679,6.226,37.709C85.696,109.696,75.114,104.024,64.129,98.137z"/>
</g>
<g id="Triangle" display="none">
	<path display="inline" fill-rule="evenodd" clip-rule="evenodd" d="M15.972,115.461c-1.284,0-2.477-0.667-3.152-1.762
		c-0.673-1.091-0.736-2.458-0.161-3.608l47.826-95.818c0.626-1.258,1.91-2.052,3.313-2.052c1.404,0,2.685,0.794,3.313,2.051
		l47.847,95.819c0.571,1.148,0.514,2.515-0.164,3.608c-0.675,1.095-1.864,1.762-3.148,1.762H15.972z"/>
	<path fill-rule="evenodd" clip-rule="evenodd" d="M13.605,116c17.066-34.186,33.86-67.827,51.187-102.533
		C82.063,48.047,98.896,81.754,116,116C81.712,116,48.012,116,13.605,116z"/>
</g>
<g id="Circle" display="none">
	<ellipse display="inline" fill-rule="evenodd" clip-rule="evenodd" cx="63.866" cy="63.89" rx="51.866" ry="51.89"/>
</g>
<g id="Heart">
	<path fill-rule="evenodd" clip-rule="evenodd" d="M63.892,26.644c3.149-3.696,6.664-6.671,10.286-9.501
		c10.646-8.315,25.12-5.364,32.404,1.466c5.321,4.99,7.927,11.623,8.854,19.371c1.306,10.905-1.798,20.204-7.378,28.684
		c-3.221,4.895-7.093,9.05-10.878,13.306C87.045,91.363,76.9,102.745,66.76,114.133c-1.947,2.188-3.814,2.197-5.752,0.018
		c-11.659-13.12-23.292-26.274-34.993-39.344c-3.982-4.448-7.461-9.328-10.117-14.955c-4.195-8.882-4.994-18.256-2.443-27.921
		c2.241-8.489,6.988-14.473,14.166-17.481c8.518-3.572,16.939-3.513,24.954,2.021c3.817,2.634,7.349,5.734,10.55,9.329
		C63.35,26.05,63.577,26.297,63.892,26.644z"/>
</g>
<g id="Paths" display="none">
</g>
</svg>
